<svg width="24" height="24" viewBox="0 0 24 25" fill="none" xmlns="http://www.w3.org/2000/svg" role="img" class="Icon Icon_Icon__Lc37_ FulfilmentSelectionTab__icon" data-di-res-id="461bbe19-af5b90f8" data-di-rand="1726211719600"><path fill-rule="evenodd" clip-rule="evenodd" d="M8.965 18.006a3.5 3.5 0 0 1-6.93 0H1v-12a1 1 0 0 1 1-1h14a1 1 0 0 1 1 1v2h3l3 4.056v5.944h-2.035a3.5 3.5 0 0 1-6.93 0h-5.07Zm12.035-2h-.337A3.5 3.5 0 0 0 17 14.042v-4.036h1.992L21 12.721v3.285Zm-6-9H3v8.05a3.5 3.5 0 0 1 5.663.95h5.674c.168-.353.393-.674.663-.95v-8.05Zm2.5 12a1.5 1.5 0 1 0 0-3 1.5 1.5 0 0 0 0 3ZM7 17.506a1.5 1.5 0 1 0-3 0 1.5 1.5 0 0 0 3 0Z" fill="#333"></path></svg>